<?xml version="1.0" encoding="UTF-8"?>
<svg id="Layer_1" data-name="Layer 1" xmlns="http://www.w3.org/2000/svg" viewBox="0 0 1487.62 1080">
  <defs>
    <style>
      .cls-1 {
        stroke: #000;
        stroke-miterlimit: 10;
        stroke-width: 5px;
      }
    </style>
  </defs>
  <path class="cls-1" d="M1143.03,675.14c-11.88,4.87-24.35,6.25-35.85,1.11-7.2-3.22-11.68-10.39-9.48-18.16,1.22-4.31,2.52-9.63,4.52-13.1,11.83-20.47,32.28-33.25,55.9-32.07,6.04.3,13.25-1.01,18.54,2.95,8.84,6.62,11.83,20.26,6.4,29.9-6.19,10.99-15.97,18.11-26.73,23.93l-13.3,5.45ZM1161.76,632.3c.09-3.26-3.08-7.42-5.13-10.12-20.33,1.35-36.69,16.53-40.64,36.82,1.3,1.54,4.07,2.78,6.1,2.61,18.2-1.46,39.22-13.71,39.67-29.32Z"/>
  <g>
    <path class="cls-1" d="M602.14,1056.96c-.33.38-.81.88-1.48,1.38-.64.48-2.98,2.23-6.1,1.87-.8-.09-2.97-.34-4.48-2.18-2.03-2.47-1.12-5.68-1.02-5.98l23.54-33.17,155.09-207.28,7.23-9.85,15.05-19.75,14.55-20.26,7.11-8.83,11.64-15.43c5.81-8.01,11.61-16.03,17.42-24.04l8.13-9.71,8.96-12.3,6.53-9.24,14.38-18.21,7.57-10.49,13.38-18.13,3.71-5.11,6.03-7.68,16.87-22.54,8.03-10.86,1.18-1.59c.26-.35-.04-2.01-.36-1.71l-2.25,2.04-52.33,48.34-12.41,10.24-9.58,9.65-12.27,11.41-27.92,28.09-12.47,12.44-11.53,10.63c-11.81,9.94-23.62,19.88-35.43,29.82-1.75,1.41-4.55,3.33-8.36,4.69-2.69.96-11.68,4.15-19.49-.57-1.45-.88-5.23-3.23-6.92-8.05-2.14-6.1.69-11.5,1.22-12.46l10.25-20.31c7.98-15.15,15.97-30.29,23.95-45.44.05-.12.9-2.25-.27-3.84-1.13-1.54-3.73-1.97-5.83-.54-10.25,5.54-20.51,11.09-30.76,16.63l-13.13,6.8-11.84,5.06-21.48,8.14c-10.37,3.37-20.74,6.73-31.11,10.1-2.47.41-10.74,1.45-18.61-3.55-1.84-1.17-6.07-3.93-8.36-9.08-4.89-10.97,3.56-22.54,4.04-23.17,10.2-12.37,20.39-24.73,30.59-37.1,1.38-1.35,5.17-5.43,5.02-10.97-.08-2.88-1.2-5.14-1.73-5.97-4.38-6.78-20.79-.95-57.51,5.41-3.31.57-2.35.38-10.15,1.71,0,0-19.11,3.04-35.59,6.24-20.36,3.95-48.19,9.58-81.81,17.08-16.97,3.72-33.93,7.44-50.9,11.16-21.75,4.08-43.5,8.17-65.24,12.25-22.62,4.52-38.99,7.78-44.44,9.06-1.4.33-5.42,1.3-6.8-.48-.6-.77-.46-1.74-.44-1.85.32-2,3.36-3.62,7.57-3.94l13.39-3.23c9.32-2.18,18.64-4.36,27.96-6.55,30.75-7.22,61.5-14.5,92.24-21.83l45.46-10.65,34.78-8.8,60.72-14.57,31.25-6.02c15.28-2.94,30.39-5.56,45.86-5.38,7.85.09,13.49,4.63,17.46,10.84,8.15,12.76-13.99,33.64-26.29,49.69-6.13,8-12.26,16.01-18.4,24.01-.64,1.57-1.15,3.62-.25,5.24,3.46,6.2,24.65.86,32.8-1.69,24.82-7.75,47.05-19.59,68.95-33.12l27.3-14.44c4.25-2.25,13.1-1.63,15.92,2.58,4.44,6.64,1.63,16.1-1.8,22.64l-18.26,34.81-18.29,32.11c-.7,1.23-1.7,3.46-1.06,4.34,1.75,2.38,10.58-.85,17.05-6.12l11.21-9.12,29.19-26.03,34.33-30.63,27.52-25.31,22.3-20.45,37.11-33.57,10.61-9.74,14.36-13.7,13.38-13.63,30.83-30.78,11.54-13.45,24.13-31.79,14.23-18.53,43-56.86,29.32-39.32,52.82-68.41,51.59-63.07,11.95-13.87,10.39-12.14,18.87-22.62,11.98-13.94,28.03-30.39,37.55-38.74,22.5-22.46,29.9-26.24,9.94-8.17,15.4-10.4c8.4-5.67,19.33-7.1,22.26-1.66,4.59,8.52-2.83,29.12-10.38,40.45l-8.13,12.2-11.22,15.85-4.63,6.62-10.21,13.1-9.12,13.42-6.86,7.9-7.5,9.24-14.24,17.16-13.59,15.86-33.01,39.79-5.2,5.99-12.98,15.22-10.02,11.29-19.73,20.72-13.08,14.04-18.68,19.15-15.07,15.55c-25.54,26.61-51.63,53.31-78.26,80.08-11.06,11.12-22.11,22.14-33.14,33.06l-19.83,17.36-23.62,20.05-10.88,10.58-9.2,8.79-6.21,6.06-10.95,10.41-10.46,9.69-6.92,6.99-108.83,145.69-.3,1.4,37.58-24.64,24.29-16.2,27.5-18.43,20.41-13.19,18.28-11.02,60.37-35.05,30.83-15.46c5.34-1.79,10.62-1.87,12.69.73,2.87,3.61-1.37,11.16-3.79,15.48-2.02,3.6-4.24,6.29-5.98,8.14-6.18,6.84-13.48,14.17-22.03,21.58-7.52,6.53-14.84,12.09-21.66,16.83l-9.72,8.03-26.59,19.72-29.81,20.47-9.78,7.08-41.88,26.82-49.55,30.12c11.19-3.17,21.23-8.01,32.82-9.67,15.06-2.15,29.41-3.15,44.37-1.78,16.63,1.52,32.86,3.37,48.6,8.69,9.06,3.31,18.5,7.17,28.22,11.7,3.52,1.64,6.95,3.31,10.27,4.99l52.75,28.16c12.23,6.91,37.2,19.5,63.94,21.49,6.98.52,18.89.68,31.65-.17,9.58-.63,17.63-1.7,23.55-2.64,25.21-5.27,49.89-11.63,73.53-21.57l14.36-6.04,18.52-9.53c2.9-1.43,5.59-.64,6.1.57.47,1.12-.65,3.29-3.11,4.55-5.13,2.83-10.26,5.66-15.39,8.5-16.23,8.29-35.17,16.65-56.72,23.93-13.26,4.48-25.9,8.02-37.72,10.82-12.06,2.92-28.92,5.64-49.03,4.73-23.37-1.07-42.18-6.65-54.72-11.47l-20.95-8.26-24.6-11.45c-6.63-3.77-15.57-8.62-26.4-13.83-8.66-4.17-16.52-7.95-27.17-11.85-7.86-2.88-18.58-6.31-31.72-9.08-27.77-5.24-56.19-4.91-83.79,1.02-10.93,3.28-21.85,6.56-32.78,9.84-10.15,2.84-20.3,5.68-30.45,8.51-3.53.72-6.42.17-7.37-1.5-.63-1.11-.3-2.5.37-4.14,1.01-2.51,3.38-7.05,9.33-11.93,16.24-11.42,32.48-22.84,48.72-34.26l33.87-22.35,14.34-10.34,18.9-13.46,23.71-16.9,33.69-23.55,13.3-9.41,7.17-5.09,37.11-26.07c.67-2.08-.33-2.81-2.42-2.56l-48.3,30.73-29.41,18.04-13.34,7.9-26.65,15.95-26.55,17.2-14.59,10.29-57.32,40.39c-6.91,4.87-11.42,11.48-16.48,18.28l-15.24,20.5-13.88,18.87-15.23,20.75-10.48,14.03-12.28,16.13-16.16,21.82-14.91,20.11-43.62,58.43-9.49,13.06-12.41,16.86-11.95,16.02-9.74,12.69-30.63,41.32-15.87,21.4-20.88,28.46ZM1080.31,430.08l33.89-32.85,44.43-45.38,23.21-24.19,12.01-12.53,18.05-19.12,52.26-55.41,19.75-23.1,11.22-13.46,13.61-15.65,13.58-18.02,24.36-30.57,6.88-8.75,16.84-21.51,10.58-15.18,5.68-7.84,6.95-9.93,16.08-24.22,9.27-15.45c-2.42.47-5.87,1.4-8.24,2.93-16.37,10.59-30.28,23.23-44.7,36.14l-8.26,7.4-11.15,10.38-14.46,14.72-18.6,19.62-10.22,9.93-13.75,14.35-7.87,8.98-26.62,30.97-6.21,7.06-29.32,36.86-21.35,26-63.92,81.99-53.03,70.53-11.04,14.89-20.62,28.24c6.25-4.43,10.94-8.81,15.88-13.93l14.82-13.9Z"/>
    <path d="M491.5,630.31c-55.25,12.78-101.59,22.54-136.19,29.53-50.05,10.11-90.67,17.49-98.35,2.98-2.13-4.02-1.2-8.72-.14-11.99,9.57-2.83,19.13-5.66,28.7-8.49,6.88-1.5,13.89-6.06,19.91-10.14,8.73-5.91,20.5-21.66,15.93-33.56-2.85-7.44-11.12-10.56-12.27-11-26.88-10.16-67.59,38.73-70.46,42.23-9.83,3.12-19.76,6.2-29.81,9.26-14.06,4.28-27.98,8.39-41.75,12.33-9.19,2.76-12.24,1.57-13.38.09-6.12-7.88,31.99-36.82,23.97-57.37-3.95-10.1-17.04-13.02-18.31-13.29-13.1-2.73-24.19,5.65-43.08,19.82-10.55,7.92-26.57,19.9-52.21,38.98,8.27-12.59,16.53-25.18,24.8-37.77,3.01-5.1,6.03-10.2,9.04-15.29,2.11-2.32,12.27-13.89,9.28-26.02-.44-1.78-1.19-5.77-4.42-7.23-3.98-1.79-13.32.35-17.19,5.37-4.91,6.39-6.55,13.57-7.71,21.59-1.14,7.9-5.44,14.99-9.56,21.75l-10.01,16.43-15.42,22.9c-9.67,17.13-11.89,31.34-6.99,34.94,5.71,4.19,20.34-6.53,21.92-7.71,27.47-19.78,54.93-39.55,82.4-59.33,1.27-.53,5.26-2.09,6.67-.56,1.42,1.53-.46,5.33-1.64,7.67-7.94,15.71-11.02,18.79-13.7,25.5-1.42,3.55-6.64,16.59-.6,25.08,1.04,1.46,2.98,3.29,6.98,5.34,16.45,8.45,37.47.91,43.72-1.56l49.05-14.37c.34,3.79,1.65,12.47,8.31,19.95,2.15,2.42,6.09,6.09,13.93,9.21,14.44,5.75,28.12,4.08,38.01,2.75,37.08-4.97,49.41-7.74,49.41-7.74,39.29-8.82-42.6,10.67,65.91-13.75,26.71-6.01,56.65-12.81,89.38-20.35l-4.12-16.23Z"/>
  </g>
</svg>